<svg width="42" height="43" viewBox="0 0 42 43" fill="none" xmlns="http://www.w3.org/2000/svg">
<path d="M0.903778 12.8146C2.32454 5.96487 6.69609 2.14982 13.5149 0.997322C18.5556 0.145541 23.5982 0.134754 28.6305 1.02124C35.6515 2.25797 39.8722 6.29551 41.2168 13.2488C42.2556 18.6225 42.2719 24.0535 41.2005 29.4221C39.7631 36.2243 35.2788 40.4232 28.4851 41.5715C23.4444 42.4232 18.4018 42.434 13.3695 41.5476C6.34857 40.3107 2.10908 36.0716 0.764581 29.1185C-0.327229 23.7093 -0.222175 18.244 0.903778 12.8145V12.8146Z" fill="#023A2E"/>
<path d="M24.6782 22.788C24.6622 22.8058 24.6444 22.8218 24.6256 22.8368L21.1246 26.1694L21.1237 26.1703C20.8406 26.4395 20.4739 26.568 20.1109 26.5595C19.747 26.5502 19.3877 26.4038 19.1169 26.1215L19.116 26.1206C18.8461 25.8373 18.7163 25.4724 18.7257 25.1095C18.7342 24.7465 18.8818 24.3872 19.1658 24.1171L20.3968 22.9456L8.87073 22.8583C8.47859 22.8546 8.12502 22.6933 7.87018 22.4353C7.62474 22.1868 7.47146 21.8472 7.463 21.473C7.46206 21.4655 7.46206 21.4589 7.46112 21.4514V21.4495V21.442V21.4373V21.4345V21.4336V21.4298H7.463C7.46676 21.0387 7.62851 20.686 7.88711 20.4328C8.1363 20.188 8.47577 20.0351 8.85192 20.0266C8.85944 20.0257 8.86602 20.0257 8.87355 20.0248H8.87543H8.88295H8.88765H8.89047H8.89141H8.89517V20.0266L20.425 20.1139L19.2157 18.9217C18.9373 18.6469 18.7953 18.2848 18.7925 17.9218C18.7897 17.5607 18.9251 17.1977 19.1997 16.9192L19.2016 16.9173C19.4761 16.6396 19.8391 16.499 20.2021 16.4961C20.5651 16.4933 20.929 16.6284 21.2083 16.9013L21.2102 16.9032L24.8616 20.5031C24.8654 20.5069 24.8701 20.5097 24.8738 20.5134L24.8729 20.5144C24.8795 20.52 24.8757 20.5172 24.8729 20.5144L24.8776 20.5191C24.8861 20.5266 24.8945 20.5341 24.903 20.5416L24.902 20.5425C24.9143 20.5547 24.9274 20.5669 24.9406 20.581C25.2114 20.8633 25.3412 21.23 25.3327 21.593C25.3243 21.956 25.1766 22.3162 24.8926 22.5863L24.6782 22.788Z" fill="#1BD8B9"/>
<path d="M14.6717 16.0069C16.4336 13.1753 19.5749 11.291 23.1568 11.291C28.6723 11.291 33.1413 15.7586 33.1413 21.2681C33.1413 26.7795 28.6713 31.2452 23.1568 31.2452C19.2504 31.2452 15.8691 29.0058 14.2282 25.7404" stroke="#D9F5EC" stroke-width="3" stroke-miterlimit="10" stroke-linecap="round"/>
</svg>
