<svg width="22" height="23" viewBox="0 0 22 23" fill="none" xmlns="http://www.w3.org/2000/svg">
<path d="M0.473407 6.81424C1.21762 3.2263 3.50748 1.22794 7.07925 0.624248C9.71963 0.178077 12.361 0.172427 14.9969 0.636777C18.6746 1.28459 20.8854 3.39949 21.5898 7.04167C22.1339 9.85646 22.1424 12.7013 21.5812 15.5134C20.8283 19.0765 18.4794 21.2759 14.9208 21.8774C12.2804 22.3235 9.63905 22.3292 7.0031 21.8649C3.32544 21.217 1.10476 18.9965 0.400495 15.3544C-0.171406 12.521 -0.116377 9.65821 0.473407 6.81419V6.81424Z" fill="#023A2E"/>
<path d="M12.9267 12.0379C12.9183 12.0473 12.909 12.0556 12.8991 12.0635L11.0653 13.8091L11.0648 13.8096C10.9165 13.9506 10.7244 14.0179 10.5343 14.0135C10.3436 14.0086 10.1555 13.932 10.0136 13.7841L10.0131 13.7836C9.87176 13.6352 9.80379 13.4441 9.80871 13.2539C9.81315 13.0638 9.89048 12.8756 10.0392 12.7341L10.684 12.1205L4.64657 12.0748C4.44117 12.0728 4.25596 11.9883 4.12247 11.8532C3.99391 11.723 3.91362 11.5452 3.90919 11.3491C3.9087 11.3452 3.9087 11.3418 3.9082 11.3378V11.3368V11.3329V11.3305V11.329V11.3285V11.3265H3.90919C3.91116 11.1216 3.99588 10.9369 4.13134 10.8043C4.26187 10.676 4.43969 10.5959 4.63672 10.5915C4.64066 10.591 4.6441 10.591 4.64804 10.5905H4.64903H4.65297H4.65543H4.65691H4.6574H4.65937V10.5915L10.6988 10.6372L10.0653 10.0127C9.91954 9.86879 9.84516 9.67915 9.84369 9.48901C9.84221 9.29985 9.91314 9.10971 10.057 8.96379L10.058 8.96281C10.2018 8.81738 10.3919 8.74368 10.5821 8.74221C10.7722 8.74074 10.9628 8.81148 11.1091 8.95446L11.1101 8.95544L13.0227 10.8411C13.0247 10.8431 13.0272 10.8445 13.0291 10.8465L13.0287 10.847C13.0321 10.8499 13.0301 10.8485 13.0287 10.847L13.0311 10.8495C13.0355 10.8534 13.04 10.8573 13.0444 10.8612L13.0439 10.8617C13.0503 10.8681 13.0572 10.8745 13.0641 10.8819C13.206 11.0298 13.274 11.2219 13.2695 11.412C13.2651 11.6021 13.1878 11.7908 13.039 11.9323L12.9267 12.0379Z" fill="#1BD8B9"/>
<path d="M7.68517 8.48585C8.60808 7.00263 10.2535 6.01562 12.1297 6.01562C15.0188 6.01562 17.3597 8.35578 17.3597 11.2417C17.3597 14.1286 15.0183 16.4678 12.1297 16.4678C10.0835 16.4678 8.31239 15.2948 7.45285 13.5843" stroke="#D9F5EC" stroke-width="1.5" stroke-miterlimit="10" stroke-linecap="round"/>
</svg>
