<svg width="22" height="25" viewBox="0 0 22 25" fill="none" xmlns="http://www.w3.org/2000/svg">
<path d="M19.8844 15.9306C20.0882 14.9001 19.9605 13.7523 19.9605 12.7385C19.9605 10.576 19.9605 8.41277 19.9605 6.25035C19.9605 5.6166 19.5708 5.04732 18.9766 4.81208L12.6806 2.32399C11.5885 1.892 10.3712 1.892 9.27906 2.32399L2.98396 4.81208C2.3897 5.04649 2.00001 5.6166 2.00001 6.25035C2.00001 9.08252 2.00339 11.9147 2.00001 14.7469C1.99663 17.1638 3.2663 18.1299 5.04738 19.6184C6.51824 20.8474 8.15224 21.8821 9.89529 22.6892L10.1793 22.8206C10.6874 23.0558 11.2749 23.06 11.7863 22.8315C13.4558 22.0872 15.0154 21.1153 16.4364 19.9733C17.5733 19.06 19.034 18.1391 19.6469 16.7134C19.7543 16.4631 19.8303 16.201 19.8844 15.9306Z" stroke="#8B8E92" stroke-width="3" stroke-miterlimit="10"/>
<path d="M10.9935 12.4873C11.9141 12.4873 12.6604 11.7469 12.6604 10.8335C12.6604 9.92013 11.9141 9.17969 10.9935 9.17969C10.0729 9.17969 9.3266 9.92013 9.3266 10.8335C9.3266 11.7469 10.0729 12.4873 10.9935 12.4873Z" stroke="#0DA071" stroke-width="2" stroke-miterlimit="10"/>
<path d="M10.9935 15.8668C10.595 15.8668 10.2718 15.5462 10.2718 15.1507V12.7288C10.2718 12.3334 10.595 12.0127 10.9935 12.0127C11.3921 12.0127 11.7153 12.3334 11.7153 12.7288V15.1507C11.7153 15.5462 11.3921 15.8668 10.9935 15.8668Z" fill="#0DA071" stroke="#0DA071" stroke-miterlimit="10"/>
</svg>
